<?xml version="1.0" encoding="UTF-8"?><svg xmlns="http://www.w3.org/2000/svg" viewBox="0 0 59.12 17.11"><defs><style>.d{fill:#eae9e8;}</style></defs><g id="a"/><g id="b"><g id="c"><g><path class="d" d="M6.07,0h4.14l6.04,17.11h-3.9l-1.07-3.52H4.97l-1.21,3.52H0L6.07,0Zm4.19,10.66l-2.14-6.81-2.21,6.81h4.36Z"/><polygon class="d" points="39.48 0 39.44 11.9 32.65 0 32.29 0 28.96 0 28.87 0 28.87 11.82 22.13 0 18.35 0 18.35 17.11 21.7 17.11 21.75 4.93 28.72 17.11 28.87 17.11 32.23 17.11 32.29 17.11 32.29 4.96 39.25 17.11 42.82 17.11 42.82 0 39.48 0"/><path class="d" d="M45.27,0h3.59V6.47h6.69V0h3.57V17.11h-3.57v-7.66h-6.69v7.66h-3.59V0Z"/></g></g></g></svg>